<?xml version="1.0" standalone="no"?>
<!DOCTYPE svg PUBLIC "-//W3C//DTD SVG 20010904//EN"
 "http://www.w3.org/TR/2001/REC-SVG-20010904/DTD/svg10.dtd">
<svg version="1.0" xmlns="http://www.w3.org/2000/svg"
 width="560.000000pt" height="560.000000pt" viewBox="0 0 560.000000 560.000000"
 preserveAspectRatio="xMidYMid meet">
<metadata>
Created by potrace 1.14, written by Peter Selinger 2001-2017
</metadata>
<g transform="translate(0.000000,560.000000) scale(0.100000,-0.100000)"
fill="#000000" stroke="none">
<path d="M2735 4609 c-33 -17 -91 -54 -128 -81 -108 -78 -106 -78 -192 -33
l-74 38 -58 -22 c-32 -12 -114 -53 -183 -90 l-125 -68 -125 -12 c-364 -37
-686 -128 -773 -219 -26 -27 -82 -164 -113 -277 -28 -101 -14 -206 33 -248 53
-46 390 -127 743 -177 41 -6 145 -20 230 -31 189 -24 237 -36 221 -52 -17 -17
-456 -15 -581 2 -126 17 -265 46 -373 77 -49 13 -98 22 -109 18 -29 -9 -42
-49 -82 -245 -67 -328 -96 -591 -96 -863 0 -299 36 -528 120 -770 20 -60 27
-126 12 -126 -4 0 -28 20 -52 45 -68 69 -90 59 -133 -60 -61 -172 -73 -325
-30 -382 11 -16 35 -37 54 -48 48 -29 170 -26 329 7 69 15 149 29 178 33 30 4
68 9 85 12 18 2 136 6 262 9 263 7 621 -6 1173 -42 211 -13 418 -23 460 -23
42 1 131 -4 196 -11 80 -8 196 -11 350 -7 323 8 427 31 508 111 47 45 62 99
55 191 -8 112 -87 330 -124 342 -6 2 -23 -8 -37 -23 -22 -25 -26 -26 -32 -10
-4 10 5 72 20 139 40 188 74 407 87 567 15 185 7 365 -26 630 -14 116 -58 358
-68 380 -16 33 -46 36 -159 11 -141 -30 -347 -51 -503 -51 -166 0 -358 16
-387 31 -20 11 -20 12 -3 22 10 5 91 16 181 23 397 32 636 68 849 130 158 46
195 75 195 150 0 44 -43 189 -83 275 -13 30 -39 92 -56 139 -48 128 -50 131
-126 171 -116 63 -380 121 -691 153 l-131 13 -129 71 c-218 120 -396 202 -450
208 -42 4 -58 1 -109 -27z m170 -168 c148 -46 477 -188 761 -327 l170 -84 92
6 c102 8 115 0 58 -36 -63 -38 -219 -86 -366 -111 -516 -89 -1478 -71 -2010
37 -136 28 -270 80 -270 105 0 11 80 10 164 0 59 -7 62 -6 163 46 259 135 605
284 663 286 20 1 64 -11 99 -27 l63 -28 120 62 c189 98 200 100 293 71z"/>
<path d="M2907 4262 c-22 -24 -21 -45 1 -65 35 -32 82 -10 82 38 0 42 -54 59
-83 27z"/>
<path d="M3108 4219 c-21 -12 -24 -59 -6 -77 19 -19 55 -14 72 9 16 23 12 47
-12 67 -19 14 -31 15 -54 1z"/>
<path d="M2176 4174 c-32 -31 -14 -84 29 -84 29 0 45 19 45 52 0 42 -45 62
-74 32z"/>
<path d="M2960 4070 c-24 -24 -24 -29 -4 -58 27 -39 84 -23 84 23 0 23 -28 55
-48 55 -7 0 -21 -9 -32 -20z"/>
</g>
</svg>
